<svg width="32" height="32" viewBox="0 0 32 32" fill="none" xmlns="http://www.w3.org/2000/svg">
<rect width="32" height="32" fill="white"/>
<line x1="21.851" y1="12.1973" x2="21.851" y2="27" stroke="#0D0D0D" stroke-width="1.15131"/>
<path d="M19.832 5.08374C19.832 5.08374 19.832 10.0339 19.832 10.6845C19.832 11.3351 21.1221 12.7419 21.9439 12.7419C22.7657 12.7419 24.3043 11.4538 24.3043 10.6845C24.3043 9.91516 24.3043 5.08374 24.3043 5.08374" stroke="#0D0D0D" stroke-width="1.15131"/>
<path d="M24.3037 9.88086L19.8316 9.88076" stroke="#0D0D0D" stroke-width="1.15131"/>
<path d="M22.0674 9.85484L22.0674 5.0719" stroke="#0D0D0D" stroke-width="1.08734"/>
<path d="M15.6446 19.5025C16.0247 19.5025 16.5484 19.8318 17.017 20.6027C17.4655 21.3407 17.7678 22.3438 17.7678 23.3526C17.7678 24.3957 17.5423 25.1739 17.1804 25.6753C16.8357 26.1529 16.3376 26.4242 15.6446 26.4242C14.965 26.4242 14.4788 26.1453 14.1395 25.6489C13.7822 25.126 13.5659 24.3235 13.5659 23.2756C13.5659 22.2635 13.8587 21.2803 14.2943 20.5644C14.7472 19.82 15.259 19.5025 15.6446 19.5025Z" stroke="#0D0D0D" stroke-width="1.15131"/>
<path d="M15.5467 5.17121L15.5468 19.8204" stroke="#0D0D0D" stroke-width="1.15131"/>
<line x1="10.0805" y1="5" x2="10.0805" y2="26.9161" stroke="#0D0D0D" stroke-width="1.15131"/>
<path d="M9.74743 5.52222C9.74743 5.52222 7.25893 6.66266 7.25893 9.80806C7.25893 12.9535 9.81738 14.5944 9.81738 14.5944" stroke="#0D0D0D" stroke-width="1.15131"/>
</svg>
