<svg width="177" height="28" viewBox="0 0 177 28" fill="none" xmlns="http://www.w3.org/2000/svg">
<path d="M13.9732 20.8177L21.9273 25.6186L19.8162 16.5711L26.8434 10.4836L17.5899 9.69879L13.9732 1.16602L10.3566 9.69879L1.10303 10.4836L8.13022 16.5711L6.01915 25.6186L13.9732 20.8177Z" fill="black"/>
<path d="M51.2122 20.8162L59.1663 25.6171L57.0552 16.5696L64.0824 10.4821L54.8289 9.69732L51.2122 1.16455L47.5956 9.69732L38.342 10.4821L45.3692 16.5696L43.2582 25.6171L51.2122 20.8162Z" fill="black"/>
<path d="M88.4512 20.8162L96.4053 25.6171L94.2942 16.5696L101.321 10.4821L92.0679 9.69732L88.4512 1.16455L84.8346 9.69732L75.5811 10.4821L82.6082 16.5696L80.4972 25.6171L88.4512 20.8162Z" fill="black"/>
<path d="M125.69 20.8162L133.645 25.6171L131.533 16.5696L138.561 10.4821L129.307 9.69732L125.69 1.16455L122.074 9.69732L112.82 10.4821L119.848 16.5696L117.736 25.6171L125.69 20.8162Z" fill="black"/>
<path d="M162.93 20.8162L170.884 25.6171L168.773 16.5696L175.8 10.4821L166.546 9.69732L162.93 1.16455L159.313 9.69732L150.059 10.4821L157.087 16.5696L154.975 25.6171L162.93 20.8162Z" fill="black"/>
</svg>
