<svg width="256" height="256" viewBox="0 0 256 256" fill="none" xmlns="http://www.w3.org/2000/svg">
<rect width="256" height="256" fill="white"/>
<line x1="174.808" y1="97.5781" x2="174.808" y2="216" stroke="#0D0D0D" stroke-width="9.21044"/>
<path d="M158.656 40.6699C158.656 40.6699 158.656 80.2708 158.656 85.4759C158.656 90.681 168.977 101.935 175.551 101.935C182.126 101.935 194.434 91.6306 194.434 85.4759C194.434 79.3212 194.434 40.6699 194.434 40.6699" stroke="#0D0D0D" stroke-width="9.21044"/>
<path d="M194.43 79.0469L158.653 79.0461" stroke="#0D0D0D" stroke-width="9.21044"/>
<path d="M176.539 78.8387L176.539 40.5752" stroke="#0D0D0D" stroke-width="8.69875"/>
<path d="M125.157 156.02C128.198 156.02 132.387 158.654 136.136 164.821C139.724 170.726 142.142 178.75 142.142 186.821C142.142 195.166 140.338 201.391 137.443 205.403C134.685 209.223 130.701 211.394 125.157 211.394C119.72 211.394 115.83 209.162 113.116 205.191C110.257 201.008 108.527 194.588 108.527 186.204C108.527 178.108 110.87 170.243 114.354 164.515C117.978 158.56 122.072 156.02 125.157 156.02Z" stroke="#0D0D0D" stroke-width="9.21044"/>
<path d="M124.374 41.3697L124.374 158.564" stroke="#0D0D0D" stroke-width="9.21044"/>
<line x1="80.6443" y1="40" x2="80.6443" y2="215.329" stroke="#0D0D0D" stroke-width="9.21044"/>
<path d="M77.9794 44.1777C77.9794 44.1777 58.0714 53.3012 58.0714 78.4645C58.0714 103.628 78.5391 116.755 78.5391 116.755" stroke="#0D0D0D" stroke-width="9.21044"/>
</svg>
